<?xml version="1.0" encoding="UTF-8"?>
<svg width="54px" height="26px" viewBox="0 0 54 26" version="1.1" xmlns="http://www.w3.org/2000/svg" xmlns:xlink="http://www.w3.org/1999/xlink">
    <!-- Generator: Sketch 57.1 (83088) - https://sketch.com -->
    <title>P2G App Icon</title>
    <desc>Created with Sketch.</desc>
    <g id="New-Customer-Journey" stroke="none" stroke-width="1" fill="none" fill-rule="evenodd">
        <g id="Home-0" transform="translate(-19.000000, -57.000000)" fill-rule="nonzero">
            <g id="P2G-App-Icon" transform="translate(19.000000, 57.000000)">
                <path d="M42.942021,12.7457213 L42.942021,15.99837 L49.9922695,15.99837 C49.3522916,19.992665 46.3832137,22.2917685 42.2600773,22.2917685 C37.3186085,22.2917685 33.4053009,18.2974735 33.3633352,13.1377343 L33.3633352,13.0953545 C33.3633352,11.792176 33.6256212,10.5737571 34.0557703,9.45069275 C34.0557703,9.40831296 34.0977361,9.36593317 34.0977361,9.32355338 C34.1397018,9.23879381 34.1816676,9.19641402 34.1816676,9.11165444 C34.1816676,9.06927465 34.2236334,9.02689487 34.2655991,8.94213529 C34.3075649,8.81499593 34.3914964,8.73023635 34.4334622,8.59250204 C34.4334622,8.59250204 34.4334622,8.59250204 34.4334622,8.55012225 C35.9337383,5.59413203 38.8608504,3.68704156 42.3020431,3.68704156 C45.1347322,3.68704156 47.6316952,5.11735941 49.26836,7.24694377 C49.8663722,5.81662592 50.6007731,4.68296659 51.240751,3.81418093 C48.9641082,1.47269764 45.8691331,0.0423797881 42.3440088,0 C39.374931,0 36.7101049,0.953545232 34.5698509,2.64873676 C32.8912203,3.95191524 31.6007731,5.64710676 30.7404749,7.59657702 C30.4781888,3.64466178 27.4776367,0.307253464 23.2600773,0.307253464 C21.0673661,0.307253464 19.1789067,1.00651997 17.8464936,2.25672372 C18.6228603,3.29502852 19.1789067,4.55582722 19.4831585,5.90138549 C20.1231364,4.6405868 21.4555494,3.90953545 23.2600773,3.90953545 C25.5786858,3.90953545 27.0894533,5.99674002 27.0894533,8.15810921 C27.0894533,9.19641402 26.3130867,10.8492258 25.0226394,12.5020375 L16,23.5207824 L16,25.6503667 L31.0866924,25.6503667 L31.0866924,21.7832111 L21.9381557,21.7832111 L28.0861403,14.5362673 C28.7261182,13.6251019 29.292656,12.9258354 29.6808393,12.1524042 C29.6808393,12.4596577 29.6388736,12.7563162 29.6388736,13.0635697 C29.6388736,20.3105134 35.1783545,26 42.2705687,26 C49.5306461,26 53.9160685,21.3170334 54,13.4132029 L54,12.7139364 L42.942021,12.7139364 L42.942021,12.7457213 Z" id="Fill-5_1_" fill="#FFA400"></path>
                <path d="M10.0791367,13.2378356 L3.84172662,13.2378356 L3.84172662,4.56543624 L10.2517986,4.56543624 C13.8345324,4.56543624 14.1367215,7.86870805 14.1367215,8.90687919 C14.147482,12.8078859 11.3201439,13.2378356 10.0791367,13.2378356 M18,8.90687919 C18,5.25755034 15.971223,1 10.3057554,1 L0,1 L0,26 L3.79856115,26 L3.79856115,16.8032718 L10.1654676,16.8032718 C12.7338129,16.8032718 14.8057554,15.9433725 16.176259,14.3074664 C17.3309353,12.9442114 18,11.0880872 18,8.90687919" id="Fill-7_1_" fill="#005CB9"></path>
            </g>
        </g>
    </g>
</svg>